<svg width="46" height="28" viewBox="0 0 46 28" fill="none" xmlns="http://www.w3.org/2000/svg">
<path d="M7.7 0C3.44741 0 0 4.01726 0 8.97274C0 17.9455 9.1 26.1025 14 28C18.9 26.1025 28 17.9455 28 8.97274C28 4.01726 24.5526 0 20.3 0C17.6958 0 15.3935 1.50652 14 3.81244C12.6065 1.50652 10.3042 0 7.7 0Z" fill="#4AC0FC"/>
<path d="M25.7 0C21.4474 0 18 4.01726 18 8.97274C18 17.9455 27.1 26.1025 32 28C36.9 26.1025 46 17.9455 46 8.97274C46 4.01726 42.5526 0 38.3 0C35.6958 0 33.3935 1.50652 32 3.81244C30.6065 1.50652 28.3042 0 25.7 0Z" fill="#DC21B8"/>
</svg>
