<svg width="28" height="18" viewBox="0 0 28 18" fill="none" xmlns="http://www.w3.org/2000/svg">
<path d="M4.68696 0C2.09842 0 0 2.44529 0 5.46167C0 10.9233 5.53913 15.8885 8.52174 17.0435C11.5043 15.8885 17.0435 10.9233 17.0435 5.46167C17.0435 2.44529 14.945 0 12.3565 0C10.7714 0 9.36995 0.917014 8.52174 2.32061C7.67353 0.917014 6.27213 0 4.68696 0Z" fill="#4AC0FC"/>
<path d="M15.6435 0C13.055 0 10.9565 2.44529 10.9565 5.46167C10.9565 10.9233 16.4957 15.8885 19.4783 17.0435C22.4609 15.8885 28 10.9233 28 5.46167C28 2.44529 25.9016 0 23.3131 0C21.7279 0 20.3265 0.917014 19.4783 2.32061C18.6301 0.917014 17.2287 0 15.6435 0Z" fill="#DC21B8"/>
</svg>
